#!OML:ASF E:\Style6\Style6.ASF
:FULLY-SPECIFIED
:DEGREES
3493
root 0.157178 17.3102 1.29742 10.7143 -4.26608 -0.947269
lowerback 0.97934 -0.385094 3.32592
upperback -5.51909 -0.244918 2.49217
thorax -6.29002 -0.222315 0.749396
lowerneck -5.27113 9.32387 7.52727
upperneck 11.4774 13.0538 -9.132
head 5.41595 6.21847 -3.13082
rclavicle -1.37969e-014 1.59028e-014
rhumerus -69.0659 6.70474 -82.3895
rradius 118.036
rwrist -16.3412
rhand 40.6725 1.60614
rfingers 7.12502
rthumb 62.9503 -8.65198
lclavicle -1.37969e-014 1.59028e-014
lhumerus -71.4214 -7.57832 92.0914
lradius 114.965
lwrist 30.2699
lhand 23.9599 43.7164
lfingers 7.12502
lthumb 48.2045 65.8332
rfemur -29.1314 -9.28999 21.0511
rtibia 42.4103
rfoot -16.8105 -0.004468
rtoes -15.7454
lfemur -25.2569 10.0075 -17.3376
ltibia 42.0578
lfoot -19.658 4.19918
ltoes -22.7088
3494
root 0.162604 17.3201 1.29964 10.6085 -4.06137 -0.893327
lowerback 0.927158 -0.525404 3.22076
upperback -5.49794 -0.442283 2.4703
thorax -6.23841 -0.314866 0.796965
lowerneck -5.20422 9.36191 7.46281
upperneck 11.6204 13.0944 -8.89764
head 5.43221 6.24824 -3.04662
rclavicle 2.82072e-014 7.95139e-016
rhumerus -68.2931 7.22118 -82.8279
rradius 117.499
rwrist -16.7085
rhand 41.9086 1.45941
rfingers 7.12502
rthumb 63.9572 -7.36331
lclavicle 2.82072e-014 7.95139e-016
lhumerus -70.8536 -7.79062 92.4955
lradius 114.982
lwrist 29.348
lhand 24.3008 44.1904
lfingers 7.12502
lthumb 48.5184 66.1577
rfemur -28.9039 -9.39349 20.9808
rtibia 42.2885
rfoot -16.8718 -0.108278
rtoes -15.8277
lfemur -25.0932 9.77417 -17.3651
ltibia 41.9472
lfoot -19.678 4.20143
ltoes -22.4668
3495
root 0.166941 17.3261 1.29891 10.591 -4.0277 -0.987555
lowerback 0.796524 -0.61161 3.20759
upperback -5.44858 -0.566306 2.48755
thorax -6.11159 -0.374006 0.82726
lowerneck -5.26761 9.41652 7.3855
upperneck 11.807 13.1534 -8.65641
head 5.48423 6.28215 -2.94955
rclavicle -1.06521e-014 5.56597e-015
rhumerus -67.3138 7.75911 -83.3115
rradius 116.927
rwrist -17.009
rhand 43.4495 1.21832
rfingers 7.12502
rthumb 65.1855 -5.64665
lclavicle -1.06521e-014 5.56597e-015
lhumerus -70.0833 -7.91546 92.77
lradius 114.915
lwrist 28.3891
lhand 24.881 44.5771
lfingers 7.12502
lthumb 49.0519 66.2838
rfemur -28.7914 -9.34143 21.068
rtibia 42.1562
rfoot -16.8654 -0.10649
rtoes -15.2962
lfemur -25.0204 9.7238 -17.2723
ltibia 41.8704
lfoot -19.636 4.29529
ltoes -22.5896
3496
root 0.173564 17.3271 1.29547 10.7235 -4.14369 -1.16568
lowerback 0.669263 -0.621585 3.29939
upperback -5.53567 -0.57796 2.52053
thorax -6.1323 -0.38439 0.810877
lowerneck -5.28096 9.44423 7.26784
upperneck 12.0833 13.1862 -8.39175
head 5.5491 6.30327 -2.84264
rclavicle 2.23943e-015 -1.90833e-014
rhumerus -66.4938 8.28036 -83.7746
rradius 116.343
rwrist -17.3021
rhand 45.3248 0.964166
rfingers 7.12502
rthumb 66.6336 -3.23432
lclavicle 2.23943e-015 -1.90833e-014
lhumerus -69.441 -7.99556 93.0152
lradius 114.816
lwrist 27.3854
lhand 25.7468 44.7079
lfingers 7.12502
lthumb 49.8459 66.0111
rfemur -28.8962 -9.2016 21.2471
rtibia 42.0363
rfoot -16.7429 -0.0990362
rtoes -15.0094
lfemur -25.1309 9.78837 -17.1422
ltibia 41.8157
lfoot -19.5705 4.39909
ltoes -22.7195
3497
root 0.181595 17.3306 1.2955 10.7943 -4.17817 -1.24042
lowerback 0.606564 -0.642838 3.38304
upperback -5.67189 -0.60413 2.46873
thorax -6.24333 -0.405124 0.713593
lowerneck -5.23985 9.45048 7.28335
upperneck 12.4294 13.1932 -8.18656
head 5.6374 6.31474 -2.77772
rclavicle 5.36097e-015 -3.57812e-014
rhumerus -65.7863 8.6765 -84.2957
rradius 115.686
rwrist -17.526
rhand 47.0056 0.804477
rfingers 7.12502
rthumb 67.8802 -0.702986
lclavicle 5.36097e-015 -3.57812e-014
lhumerus -68.8879 -8.18668 93.1609
lradius 114.648
lwrist 26.5295
lhand 26.7778 44.8024
lfingers 7.12502
lthumb 50.7882 65.6013
rfemur -28.9201 -9.16459 21.3059
rtibia 41.9207
rfoot -16.627 -0.111691
rtoes -14.9904
lfemur -25.1774 9.7478 -17.0993
ltibia 41.7681
lfoot -19.5487 4.39284
ltoes -22.4151
